<svg xmlns="http://www.w3.org/2000/svg" width="24" height="24" viewBox="0 0 24 24" stroke-width="2" stroke="currentColor" fill="none" stroke-linecap="round" stroke-linejoin="round">
  <path d="M5 5V5.00874M8.5 5V5.00874M12 5V5.00874M15.5 5V5.00874M19 5V5.00874M5 18.9913V19M8.5 18.9913V19M12 18.9913V19M19 11.9956V12.0044M19 8.49781V8.50656M5 15.4934V15.5022M5 11.9956V12.0044M5 8.49781V8.50656" />
  <path d="M18.42 15.6151C18.615 15.4201 18.8465 15.2654 19.1013 15.1599C19.3561 15.0543 19.6292 15 19.905 15C20.1808 15 20.4539 15.0543 20.7087 15.1599C20.9635 15.2654 21.195 15.4201 21.39 15.6151C21.585 15.8101 21.7397 16.0416 21.8452 16.2964C21.9508 16.5512 22.0051 16.8243 22.0051 17.1001C22.0051 17.3759 21.9508 17.649 21.8452 17.9038C21.7397 18.1586 21.585 18.3901 21.39 18.5851L18 22.0051H15V19.0051L18.42 15.6151Z" fill="currentColor" fill-opacity="0.4" />
</svg>
