<svg xmlns="http://www.w3.org/2000/svg" width="24" height="24" viewBox="0 0 24 24" stroke-width="2" stroke="currentColor" fill="none" stroke-linecap="round" stroke-linejoin="round">
  <path d="M4.5 18C4.5 19.6667 4.5 22 8.5 20C13.5 17.5 13.5 20 13.5 21" />
  <path d="M5.20734 16.0852H4.20734V17.0852H5.20734V16.0852ZM8.62197 16.0852V17.0852H9.0362L9.32909 16.7923L8.62197 16.0852ZM17.5854 7.12183L18.2925 7.82893L18.2925 7.82893L17.5854 7.12183ZM15.8781 3V2V3ZM14.1708 3.70719L13.4636 3.00009L13.4636 3.00009L14.1708 3.70719ZM5.20734 12.6706L4.50023 11.9635L4.20734 12.2564V12.6706H5.20734ZM14.0242 3.8537C13.6337 3.46317 13.0005 3.46317 12.61 3.8537C12.2195 4.24422 12.2195 4.87739 12.61 5.26791L14.0242 3.8537ZM16.0246 8.68254C16.4151 9.07307 17.0483 9.07307 17.4388 8.68254C17.8294 8.29202 17.8294 7.65885 17.4388 7.26833L16.0246 8.68254ZM7.19493 10.683C6.80441 10.2924 6.17124 10.2924 5.78072 10.683C5.39019 11.0735 5.39019 11.7067 5.78072 12.0972L7.19493 10.683ZM13.7439 10.9633L14.451 11.6704L14.451 11.6704L13.7439 10.9633ZM5.20734 16.0852V17.0852H8.62197V16.0852V15.0852H5.20734V16.0852ZM17.5854 7.12183L18.2925 7.82893C18.9328 7.18859 19.2926 6.32009 19.2926 5.41451H18.2926H17.2926C17.2926 5.78966 17.1436 6.14945 16.8783 6.41472L17.5854 7.12183ZM18.2926 5.41451H19.2926C19.2926 4.50893 18.9328 3.64043 18.2925 3.00009L17.5854 3.70719L16.8783 4.4143C17.1436 4.67957 17.2926 5.03936 17.2926 5.41451H18.2926ZM17.5854 3.70719L18.2925 3.00009C17.6521 2.35974 16.7837 2 15.8781 2L15.8781 3L15.8781 4C16.2532 4 16.613 4.14903 16.8783 4.4143L17.5854 3.70719ZM15.8781 3V2C14.9725 2 14.104 2.35974 13.4636 3.00009L14.1708 3.70719L14.8779 4.4143C15.1431 4.14903 15.5029 4 15.8781 4V3ZM14.1708 3.70719L13.4636 3.00009L4.50023 11.9635L5.20734 12.6706L5.91444 13.3777L14.8779 4.4143L14.1708 3.70719ZM5.20734 12.6706H4.20734V16.0852H5.20734H6.20734V12.6706H5.20734ZM13.3171 4.5608L12.61 5.26791L16.0246 8.68254L16.7317 7.97544L17.4388 7.26833L14.0242 3.8537L13.3171 4.5608ZM13.7439 10.9633L14.451 11.6704L18.2925 7.82893L17.5854 7.12183L16.8783 6.41472L13.0368 10.2562L13.7439 10.9633ZM8.62197 16.0852L9.32909 16.7923L10.6096 15.5118L9.90246 14.8047L9.19534 14.0976L7.91485 15.3782L8.62197 16.0852ZM6.48782 11.3901L5.78072 12.0972L9.19535 15.5118L9.90246 14.8047L10.6096 14.0976L7.19493 10.683L6.48782 11.3901ZM13.7439 10.9633L13.0368 10.2562L9.19536 14.0976L9.90246 14.8047L10.6096 15.5118L14.451 11.6704L13.7439 10.9633Z" fill="currentColor" fill-opacity="0.4" />
</svg>
