<svg xmlns="http://www.w3.org/2000/svg" width="24" height="24" viewBox="0 0 24 24" stroke-width="2" stroke="currentColor" fill="none" stroke-linecap="round" stroke-linejoin="round">
  <path d="M5 4.5V19L8.46484 15.5352C7.56002 14.6303 7 13.3807 7 12C7 9.23858 9.23858 7 12 7C13.3807 7 14.6303 7.56002 15.5352 8.46484L19.5 4.5H5Z" fill="currentColor" fill-opacity="0.4" />
  <path d="M8.46484 15.5352C9.36967 16.44 10.6193 17 12 17C14.7614 17 17 14.7614 17 12C17 10.6193 16.44 9.36967 15.5352 8.46484L8.46484 15.5352Z" fill="currentColor" fill-opacity="0.4" />
  <path d="M3.99997 5.77778C3.99997 5.30628 4.18727 4.8541 4.52067 4.5207C4.85407 4.1873 5.30625 4 5.77775 4H18.2222C18.6937 4 19.1459 4.1873 19.4793 4.5207C19.8127 4.8541 20 5.30628 20 5.77778V18.2222C20 18.6937 19.8127 19.1459 19.4793 19.4793C19.1459 19.8127 18.6937 20 18.2222 20H5.77775C5.30625 20 4.85407 19.8127 4.52067 19.4793C4.18727 19.1459 3.99997 18.6937 3.99997 18.2222V5.77778Z" />
  <path d="M4.29477 19.6812L19.7451 4.23096" />
</svg>
