<svg xmlns="http://www.w3.org/2000/svg" width="24" height="24" viewBox="0 0 24 24" stroke-width="2" stroke="currentColor" fill="none" stroke-linecap="round" stroke-linejoin="round">
  <circle cx="13.9036" cy="4.82583" r="2" transform="rotate(47.4551 13.9036 4.82583)" />
  <circle cx="4.32583" cy="13.616" r="2" transform="rotate(47.4551 4.32583 13.616)" />
  <rect x="12.4301" y="6.17816" width="0" height="9" transform="rotate(47.4551 12.4301 6.17816)" fill="currentColor" fill-opacity="0.4" />
  <path d="M13.9404 20.4782C13.9736 20.6275 14.0517 20.7631 14.1643 20.8668C14.2768 20.9705 14.4183 21.0373 14.5699 21.0582C14.7214 21.0792 14.8758 21.0533 15.0122 20.984C15.1486 20.9148 15.2606 20.8054 15.3331 20.6707L16.6395 18.7373L19.7069 21.8046C19.7688 21.8666 19.8424 21.9157 19.9233 21.9492C20.0042 21.9827 20.0909 22 20.1785 22C20.2661 22 20.3528 21.9827 20.4338 21.9492C20.5147 21.9157 20.5882 21.8666 20.6502 21.8046L21.3046 21.1502C21.3666 21.0882 21.4157 21.0147 21.4492 20.9338C21.4827 20.8528 21.5 20.7661 21.5 20.6785C21.5 20.5909 21.4827 20.5042 21.4492 20.4233C21.4157 20.3424 21.3666 20.2688 21.3046 20.2069L18.2373 17.1395L20.1832 15.8331C20.3179 15.7605 20.4272 15.6485 20.4965 15.512C20.5657 15.3756 20.5915 15.2212 20.5705 15.0696C20.5495 14.9181 20.4826 14.7765 20.3789 14.6641C20.2751 14.5516 20.1394 14.4735 19.9901 14.4404L11.5 12L13.9404 20.4782Z" />
</svg>
