<svg xmlns="http://www.w3.org/2000/svg" width="24" height="24" viewBox="0 0 24 24" stroke-width="2" stroke="currentColor" fill="none" stroke-linecap="round" stroke-linejoin="round">
  <circle cx="3.73807" cy="17.2381" r="2" transform="rotate(7.30509 3.73807 17.2381)" />
  <circle cx="19.7381" cy="8.23807" r="2" transform="rotate(7.30509 19.7381 8.23807)" />
  <path d="M11.3341 9.83406C11.9487 9.21945 12.3268 8.40774 12.4019 7.5418C12.477 6.67586 12.2443 5.81118 11.7447 5.09993C11.245 4.38868 10.5106 3.87645 9.67048 3.65338C8.83039 3.43031 7.93855 3.51071 7.15191 3.88042C6.36526 4.25013 5.73423 4.88545 5.36986 5.67459C5.00549 6.46372 4.93114 7.35609 5.1599 8.19464C5.38865 9.03319 5.90585 9.76418 6.62047 10.259C7.33509 10.7538 8.20133 10.9806 9.06675 10.8997V8.30035L11.3341 9.83406Z" fill="currentColor" fill-opacity="0.4" />
  <path d="M11.3341 9.83406C11.9382 9.22991 12.3142 8.43497 12.3979 7.58468C12.4817 6.7344 12.268 5.88138 11.7933 5.17098C11.3187 4.46057 10.6123 3.93673 9.79474 3.68872C8.97713 3.4407 8.09882 3.48385 7.30946 3.81081C6.5201 4.13777 5.86853 4.72832 5.46577 5.48183C5.06301 6.23534 4.93398 7.1052 5.10067 7.94318C5.26735 8.78116 5.71944 9.53542 6.3799 10.0774C7.04035 10.6195 7.86832 10.9157 8.72272 10.9157" />
  <path d="M9.30866 18.2265C9.30141 18.3958 9.34612 18.5633 9.4368 18.7065C9.52748 18.8498 9.65978 18.9618 9.81596 19.0277C9.97215 19.0936 10.1447 19.1101 10.3106 19.0751C10.4765 19.0401 10.6276 18.9552 10.7439 18.8318L12.6964 17.1374L15.0994 21.2995C15.1479 21.3835 15.2125 21.4572 15.2895 21.5163C15.3664 21.5753 15.4543 21.6187 15.5481 21.6438C15.6418 21.6689 15.7396 21.6753 15.8358 21.6627C15.932 21.65 16.0248 21.6185 16.1088 21.57L16.9969 21.0572C17.0809 21.0087 17.1546 20.9441 17.2136 20.8671C17.2727 20.7902 17.316 20.7023 17.3412 20.6085C17.3663 20.5148 17.3727 20.417 17.36 20.3208C17.3474 20.2246 17.3159 20.1318 17.2673 20.0478L14.8644 15.8857L17.3214 15.0456C17.4864 15.0066 17.6355 14.918 17.7487 14.7919C17.8619 14.6657 17.9338 14.5079 17.9548 14.3396C17.9758 14.1714 17.9448 14.0008 17.866 13.8507C17.7872 13.7006 17.6644 13.5781 17.5141 13.4998L9.12817 8.45374L9.30866 18.2265Z" />
</svg>
