<svg xmlns="http://www.w3.org/2000/svg" width="24" height="24" viewBox="0 0 24 24" stroke-width="2" stroke="currentColor" fill="none" stroke-linecap="round" stroke-linejoin="round">
  <path d="M17.6568 14.1213L17.3033 9.52513M15.182 5.98959L12 4.92893M8.818 5.98959L5.63602 12.7071M7.05024 14.8284L15.5355 16.2426M18.3639 8.46447C17.9889 8.83954 17.4802 9.05025 16.9497 9.05025C16.4193 9.05025 15.9106 8.83954 15.5355 8.46447C15.1604 8.08939 14.9497 7.58069 14.9497 7.05025C14.9497 6.51982 15.1604 6.01111 15.5355 5.63604C15.9106 5.26097 16.4193 5.05025 16.9497 5.05025C17.4802 5.05025 17.9889 5.26097 18.3639 5.63604C18.739 6.01111 18.9497 6.51982 18.9497 7.05025C18.9497 7.58069 18.739 8.08939 18.3639 8.46447ZM11.2929 5.63604C10.9178 6.01111 10.4091 6.22183 9.87866 6.22183C9.34823 6.22183 8.83952 6.01111 8.46445 5.63604C8.08938 5.26097 7.87866 4.75226 7.87866 4.22183C7.87866 3.69139 8.08938 3.18269 8.46445 2.80761C8.83952 2.43254 9.34823 2.22183 9.87866 2.22183C10.4091 2.22183 10.9178 2.43254 11.2929 2.80761C11.6679 3.18269 11.8787 3.69139 11.8787 4.22183C11.8787 4.75226 11.6679 5.26097 11.2929 5.63604ZM19.0711 17.6569C18.696 18.0319 18.1873 18.2426 17.6568 18.2426C17.1264 18.2426 16.6177 18.0319 16.2426 17.6569C15.8676 17.2818 15.6568 16.7731 15.6568 16.2426C15.6568 15.7122 15.8676 15.2035 16.2426 14.8284C16.6177 14.4534 17.1264 14.2426 17.6568 14.2426C18.1873 14.2426 18.696 14.4534 19.0711 14.8284C19.4461 15.2035 19.6568 15.7122 19.6568 16.2426C19.6568 16.7731 19.4461 17.2818 19.0711 17.6569ZM6.34313 16.2426C5.96806 16.6177 5.45935 16.8284 4.92892 16.8284C4.39848 16.8284 3.88978 16.6177 3.5147 16.2426C3.13963 15.8676 2.92892 15.3589 2.92892 14.8284C2.92892 14.298 3.13963 13.7893 3.5147 13.4142C3.88978 13.0391 4.39848 12.8284 4.92892 12.8284C5.45935 12.8284 5.96806 13.0391 6.34313 13.4142C6.7182 13.7893 6.92892 14.298 6.92892 14.8284C6.92892 15.3589 6.7182 15.8676 6.34313 16.2426Z" />
  <path d="M17.4057 12.7025C17.6284 12.4798 17.8928 12.3031 18.1838 12.1826C18.4748 12.062 18.7867 12 19.1016 12C19.4166 12 19.7285 12.062 20.0194 12.1826C20.3104 12.3031 20.5748 12.4798 20.7975 12.7025C21.0202 12.9252 21.1969 13.1896 21.3174 13.4806C21.438 13.7715 21.5 14.0834 21.5 14.3984C21.5 14.7133 21.438 15.0252 21.3174 15.3162C21.1969 15.6072 21.0202 15.8716 20.7975 16.0943L18.8618 18.0471L16.9261 20H13.5V16.5739L17.4057 12.7025Z" fill="currentColor" fill-opacity="0.4" />
</svg>
