<svg xmlns="http://www.w3.org/2000/svg" width="24" height="24" viewBox="0 0 24 24" stroke-width="2" stroke="currentColor" fill="none" stroke-linecap="round" stroke-linejoin="round">
  <path d="M21.0003 11.341L18.6863 4.27072L5.18848 5.42767L4.03152 19.6968L12.664 18.2014" stroke-dasharray="0.01 3.5"/>
  <path d="M14.7174 18.8084C14.7166 18.9614 14.7627 19.111 14.8494 19.2371C14.936 19.3631 15.0592 19.4597 15.2023 19.5138C15.3455 19.5679 15.5017 19.5769 15.6501 19.5396C15.7985 19.5024 15.9319 19.4207 16.0326 19.3054L17.7357 17.7103L20.0454 21.3822C20.092 21.4564 20.1528 21.5206 20.2243 21.5713C20.2957 21.6219 20.3765 21.658 20.4619 21.6774C20.5473 21.6969 20.6357 21.6993 20.722 21.6846C20.8084 21.6699 20.891 21.6383 20.9651 21.5917L21.7486 21.0989C21.8227 21.0522 21.8869 20.9914 21.9376 20.92C21.9883 20.8485 22.0243 20.7678 22.0438 20.6824C22.0632 20.597 22.0657 20.5086 22.051 20.4222C22.0362 20.3359 22.0047 20.2533 21.958 20.1791L19.6484 16.5073L21.8358 15.6655C21.9833 15.6247 22.1147 15.5397 22.2125 15.422C22.3103 15.3044 22.3698 15.1596 22.383 15.0071C22.3961 14.8547 22.3624 14.7018 22.2862 14.5691C22.21 14.4364 22.095 14.3302 21.9567 14.2647L14.2205 10L14.7174 18.8084Z" />
</svg>
