<svg xmlns="http://www.w3.org/2000/svg" width="24" height="24" viewBox="0 0 24 24" stroke-width="2" stroke="currentColor" fill="none" stroke-linecap="round" stroke-linejoin="round">
  <path d="M8.41421 10.4142C8.03914 10.7893 7.53043 11 7 11C6.46957 11 5.96086 10.7893 5.58579 10.4142C5.21071 10.0391 5 9.53043 5 9C5 8.46957 5.21071 7.96086 5.58579 7.58579C5.96086 7.21071 6.46957 7 7 7C7.53043 7 8.03914 7.21071 8.41421 7.58579C8.78929 7.96086 9 8.46957 9 9C9 9.53043 8.78929 10.0391 8.41421 10.4142ZM8.41421 10.4142L10 12M15.5858 15.5858C15.9609 15.2107 16.4696 15 17 15C17.5304 15 18.0391 15.2107 18.4142 15.5858C18.7893 15.9609 19 16.4696 19 17C19 17.5304 18.7893 18.0391 18.4142 18.4142C18.0391 18.7893 17.5304 19 17 19C16.4696 19 15.9609 18.7893 15.5858 18.4142C15.2107 18.0391 15 17.5304 15 17C15 16.4696 15.2107 15.9609 15.5858 15.5858ZM15.5858 15.5858L13.2431 14.3522M8.5 7.5L10.25 6L11.2679 5M15 4.5L18 6M19.5 9L18 15M11 4C11 4.53043 11.2107 5.03914 11.5858 5.41421C11.9609 5.78929 12.4696 6 13 6C13.5304 6 14.0391 5.78929 14.4142 5.41421C14.7893 5.03914 15 4.53043 15 4C15 3.46957 14.7893 2.96086 14.4142 2.58579C14.0391 2.21071 13.5304 2 13 2C12.4696 2 11.9609 2.21071 11.5858 2.58579C11.2107 2.96086 11 3.46957 11 4ZM18 7C18 7.53043 18.2107 8.03914 18.5858 8.41421C18.9609 8.78929 19.4696 9 20 9C20.5304 9 21.0391 8.78929 21.4142 8.41421C21.7893 8.03914 22 7.53043 22 7C22 6.46957 21.7893 5.96086 21.4142 5.58579C21.0391 5.21071 20.5304 5 20 5C19.4696 5 18.9609 5.21071 18.5858 5.58579C18.2107 5.96086 18 6.46957 18 7Z" />
  <path d="M10.6386 20.3576C10.6105 20.5046 10.5382 20.6394 10.4313 20.7441C10.3244 20.8487 10.1881 20.9182 10.0406 20.9431C9.89312 20.9681 9.74152 20.9474 9.60615 20.8837C9.47077 20.82 9.35811 20.7165 9.28326 20.587L7.9493 18.7362L5.04245 21.8246C4.98375 21.8869 4.91335 21.9371 4.83526 21.9723C4.75717 22.0074 4.67292 22.0268 4.58732 22.0294C4.50172 22.032 4.41644 22.0177 4.33637 21.9874C4.25629 21.957 4.18298 21.9112 4.12062 21.8525L3.46166 21.2322C3.3993 21.1735 3.34911 21.1031 3.31395 21.0251C3.2788 20.947 3.25937 20.8627 3.25678 20.7771C3.25419 20.6915 3.26848 20.6062 3.29885 20.5262C3.32921 20.4461 3.37505 20.3728 3.43375 20.3104L6.3406 17.222L4.40026 16.0029C4.26645 15.9359 4.15631 15.8297 4.08462 15.6984C4.01293 15.5671 3.98311 15.417 3.99917 15.2682C4.01522 15.1195 4.07639 14.9792 4.17446 14.8662C4.27253 14.7532 4.40281 14.6729 4.54781 14.6361L12.7726 12L10.6386 20.3576Z" />
</svg>
