<svg xmlns="http://www.w3.org/2000/svg" width="24" height="24" viewBox="0 0 24 24" stroke-width="2" stroke="currentColor" fill="none" stroke-linecap="round" stroke-linejoin="round">
  <path d="M8.681 20.8339V14.1905M4.80569 4.77905C4.29678 5.28797 3.89309 5.89213 3.61767 6.55706C3.34225 7.22199 3.20049 7.93465 3.20049 8.65436C3.20049 9.37407 3.34225 10.0867 3.61767 10.7517C3.89309 11.4166 4.29678 12.0208 4.80569 12.5297C5.31461 13.0386 5.91877 13.4423 6.5837 13.7177C7.24863 13.9931 7.96129 14.1349 8.681 14.1349C9.40071 14.1349 10.1134 13.9931 10.7783 13.7177C11.4432 13.4423 12.0474 13.0386 12.5563 12.5297C13.0652 12.0208 13.4689 11.4166 13.7443 10.7517C14.0198 10.0867 14.1615 9.37407 14.1615 8.65436C14.1615 7.93465 14.0198 7.22199 13.7443 6.55706C13.4689 5.89213 13.0652 5.28797 12.5563 4.77905C12.0474 4.27014 11.4432 3.86645 10.7783 3.59103C10.1134 3.31561 9.40071 3.17385 8.681 3.17385C7.96129 3.17385 7.24863 3.31561 6.5837 3.59103C5.91877 3.86645 5.31461 4.27014 4.80569 4.77905Z" />
  <path d="M15.1824 13.8968C15.1824 13.3711 15.3912 12.867 15.7629 12.4953C16.1346 12.1236 16.6388 11.9147 17.1644 11.9147H19.1465C19.6721 11.9147 20.1763 12.1236 20.548 12.4953C20.9197 12.867 21.1285 13.3711 21.1285 13.8968V18.8519C21.1285 19.3775 20.9197 19.8817 20.548 20.2534C20.1763 20.6251 19.6721 20.8339 19.1465 20.8339H17.1644C16.6388 20.8339 16.1346 20.6251 15.7629 20.2534C15.3912 19.8817 15.1824 19.3775 15.1824 18.8519V13.8968Z" fill="currentColor" fill-opacity="0.4" />
  <path d="M18.1555 13.8968V16.6519Z" fill="currentColor" fill-opacity="0.4" />
  <path d="M18.1555 13.8968V16.6519M15.1824 13.8968C15.1824 13.3711 15.3912 12.867 15.7629 12.4953C16.1346 12.1236 16.6388 11.9147 17.1644 11.9147H19.1465C19.6721 11.9147 20.1763 12.1236 20.548 12.4953C20.9197 12.867 21.1285 13.3711 21.1285 13.8968V18.8519C21.1285 19.3775 20.9197 19.8817 20.548 20.2534C20.1763 20.6251 19.6721 20.8339 19.1465 20.8339H17.1644C16.6388 20.8339 16.1346 20.6251 15.7629 20.2534C15.3912 19.8817 15.1824 19.3775 15.1824 18.8519V13.8968Z" />
  <path d="M5.90637 8.8085H11.4556M8.681 6.03387V11.5831"/>
</svg>
