<svg xmlns="http://www.w3.org/2000/svg" width="24" height="24" viewBox="0 0 24 24" stroke-width="2" stroke="currentColor" fill="none" stroke-linecap="round" stroke-linejoin="round">
  <path d="M14.5 7L17 9.5M17 9.5L14.5 12M17 9.5H12M4.5 7L2 9.5M2 9.5L4.5 12M2 9.5H7M7 14.5L9.5 17M9.5 17L12 14.5M9.5 17V12M12 4.5L9.5 2M9.5 2L7 4.5M9.5 2V7" />
  <path d="M15.5 15.1519C15.5 14.5812 15.7267 14.0338 16.1303 13.6303C16.5338 13.2267 17.0812 13 17.6519 13H19.8037C20.3744 13 20.9218 13.2267 21.3253 13.6303C21.7289 14.0338 21.9556 14.5812 21.9556 15.1519V20.5315C21.9556 21.1022 21.7289 21.6496 21.3253 22.0531C20.9218 22.4567 20.3744 22.6834 19.8037 22.6834H17.6519C17.0812 22.6834 16.5338 22.4567 16.1303 22.0531C15.7267 21.6496 15.5 21.1022 15.5 20.5315V15.1519Z" fill="currentColor" fill-opacity="0.4" />
  <path d="M18.7278 16V18.0541Z" fill="currentColor" fill-opacity="0.4" />
  <path d="M18.7278 16V18.0541M15.5 15.1519C15.5 14.5812 15.7267 14.0338 16.1303 13.6303C16.5338 13.2267 17.0812 13 17.6519 13H19.8037C20.3744 13 20.9218 13.2267 21.3253 13.6303C21.7289 14.0338 21.9556 14.5812 21.9556 15.1519V20.5315C21.9556 21.1022 21.7289 21.6496 21.3253 22.0531C20.9218 22.4567 20.3744 22.6834 19.8037 22.6834H17.6519C17.0812 22.6834 16.5338 22.4567 16.1303 22.0531C15.7267 21.6496 15.5 21.1022 15.5 20.5315V15.1519Z" />
</svg>
